<svg xmlns="http://www.w3.org/2000/svg" width="24.646" height="28.167" viewBox="0 0 24.646 28.167"><path d="M0,25.526a2.641,2.641,0,0,0,2.641,2.641H22.005a2.641,2.641,0,0,0,2.641-2.641V10.563H0ZM17.6,14.744a.662.662,0,0,1,.66-.66h2.2a.662.662,0,0,1,.66.66v2.2a.662.662,0,0,1-.66.66h-2.2a.662.662,0,0,1-.66-.66Zm0,7.042a.662.662,0,0,1,.66-.66h2.2a.662.662,0,0,1,.66.66v2.2a.662.662,0,0,1-.66.66h-2.2a.662.662,0,0,1-.66-.66Zm-7.042-7.042a.662.662,0,0,1,.66-.66h2.2a.662.662,0,0,1,.66.66v2.2a.662.662,0,0,1-.66.66h-2.2a.662.662,0,0,1-.66-.66Zm0,7.042a.662.662,0,0,1,.66-.66h2.2a.662.662,0,0,1,.66.66v2.2a.662.662,0,0,1-.66.66h-2.2a.662.662,0,0,1-.66-.66ZM3.521,14.744a.662.662,0,0,1,.66-.66h2.2a.662.662,0,0,1,.66.66v2.2a.662.662,0,0,1-.66.66h-2.2a.662.662,0,0,1-.66-.66Zm0,7.042a.662.662,0,0,1,.66-.66h2.2a.662.662,0,0,1,.66.66v2.2a.662.662,0,0,1-.66.66h-2.2a.662.662,0,0,1-.66-.66ZM22.005,3.521H19.365V.88a.883.883,0,0,0-.88-.88h-1.76a.883.883,0,0,0-.88.88V3.521H8.8V.88A.883.883,0,0,0,7.922,0H6.161a.883.883,0,0,0-.88.88V3.521H2.641A2.641,2.641,0,0,0,0,6.161V8.8H24.646V6.161A2.641,2.641,0,0,0,22.005,3.521Z" fill="#9ba5be"/></svg>