<svg xmlns="http://www.w3.org/2000/svg" xmlns:xlink="http://www.w3.org/1999/xlink" width="150" height="150" viewBox="0 0 150 150"><defs><linearGradient id="a" x1="0.5" y1="1" x2="0.5" gradientUnits="objectBoundingBox"><stop offset="0" stop-color="#fb034f"/><stop offset="1" stop-color="#b20012"/></linearGradient></defs><g transform="translate(-915 -310)"><g transform="translate(915 310)" fill="#fcfcfc" stroke="#eee" stroke-width="1"><circle cx="75" cy="75" r="75" stroke="none"/><circle cx="75" cy="75" r="74.5" fill="none"/></g><circle cx="11.5" cy="11.5" r="11.5" transform="translate(979 400)" fill="#ebebeb"/><path d="M9.862,56.247a19.332,19.332,0,0,0,.98,2.48L8.451,59.865a22.534,22.534,0,0,1-1.112-2.816Zm4.851-19.838-.928-.944-.976-.9A22.093,22.093,0,0,0,6.3,50.294a22.4,22.4,0,0,0,.348,3.939l2.607-.466a19.771,19.771,0,0,1-.307-3.473,19.456,19.456,0,0,1,5.73-13.846ZM44.6,38.339l2.094-1.621a22.687,22.687,0,0,0-1.855-2.112l-1.877,1.867A20.508,20.508,0,0,1,44.6,38.339ZM47.1,42.6l2.436-1.037a22.018,22.018,0,0,0-1.268-2.514L45.982,40.4A18.859,18.859,0,0,1,47.1,42.6Zm-6.009-8,1.872-1.872L41.088,30.86l-1.872,1.872Zm-1.873-5.617-1.872-1.872-1.872,1.872,1.872,1.872Zm-9.089,27.66H27.479V59.3a3.972,3.972,0,1,0,0,7.944h2.648a1.324,1.324,0,1,1,0,2.648H26.155V68.563H23.507v3.972h3.972v2.648h2.648V72.535a3.972,3.972,0,0,0,0-7.944H27.479a1.324,1.324,0,1,1,0-2.648h3.972v1.324H34.1V59.3H30.127ZM83.084,30.169V83.127H28.8a17.218,17.218,0,0,1-15.587-9.96A27.527,27.527,0,0,1,9.065,30.823L18.987,20.9l-7.4-7.4v-.548a5.83,5.83,0,0,1,5.1-5.778l2.083-.261-.969-2.909,8.96-1.793,2.1,3.152,3.377-4.5,7.5,1.876L38.477,6.876l2.439.3a5.83,5.83,0,0,1,5.1,5.778v.548l-7.4,7.4,9.922,9.922a27.35,27.35,0,0,1,7.975,17.7,31.475,31.475,0,0,0,18.548-8.249c3.565-3.35,5.373-6.749,5.373-10.1ZM51.31,51.352V80.479h5.3v-29.3c-1.168.111-2.35.171-3.543.171Zm7.944,29.127h5.3V49.515a35.582,35.582,0,0,1-5.3,1.313Zm7.944,0h5.3V45.653A33.571,33.571,0,0,1,67.2,48.5ZM37.685,9.444,34.567,19.578H36.2l7.127-7.127a3.182,3.182,0,0,0-2.739-2.644ZM21.266,6.018l4.519,13.56H31.8l4.6-14.942-3.089-.772-4.566,6.09L25.545,5.163ZM14.28,12.451l7.127,7.127h1.587l-3.365-10.1-2.608.326a3.182,3.182,0,0,0-2.741,2.644ZM11.844,68.745A17.108,17.108,0,0,1,28.8,48.7h24.26c.274,0,.54-.03.813-.036A24.715,24.715,0,0,0,46.668,32.7L36.2,22.225H21.407L10.937,32.7a24.876,24.876,0,0,0,.907,36.05ZM28.8,80.479A14.563,14.563,0,1,0,14.239,65.916,14.581,14.581,0,0,0,28.8,80.479Zm9.13,0H48.662V51.352H37.933a17.163,17.163,0,0,1,0,29.127Zm42.5,0v-42.4A24.58,24.58,0,0,1,76.878,42.2c-.56.527-1.143,1.023-1.737,1.508V80.479ZM72.493,8.21V23.549h2.648V8.21l3.036,3.036,1.872-1.872L73.817,3.142,67.585,9.374l1.872,1.872ZM60.577,17.478V32.817h2.648V17.478l3.036,3.036,1.872-1.872L61.9,12.41,55.67,18.642l1.872,1.872Z" transform="translate(948 345.131)" fill="url(#a)"/></g></svg>