<svg xmlns="http://www.w3.org/2000/svg" xmlns:xlink="http://www.w3.org/1999/xlink" width="60" height="60" viewBox="0 0 60 60"><defs><linearGradient id="a" x1="0.5" x2="0.5" y2="1" gradientUnits="objectBoundingBox"><stop offset="0" stop-color="#e0d2f9"/><stop offset="1" stop-color="#dee0f4"/></linearGradient></defs><g transform="translate(-401 -610)"><path d="M30,60A30.008,30.008,0,0,1,18.323,2.358,30.008,30.008,0,0,1,41.677,57.642,29.813,29.813,0,0,1,30,60Zm0-49.091A19.091,19.091,0,1,0,49.091,30,19.113,19.113,0,0,0,30,10.909Z" transform="translate(401 610)" fill="url(#a)"/><g transform="translate(405.401 615)"><path d="M42.835,5.495H11.66l1.356-1.939,1.134-1.609V1.939h0L15.507,0H38.988l1.356,1.939,1.127,1.617h.008Z" transform="translate(-1.65)" fill="#ef533d"/><path d="M41.885,4.147H13.43l1.134-1.609V2.53H40.758Z" transform="translate(-2.063 -0.591)" fill="#fff"/><path d="M26.757,30.922l-1.816.659-1.525.552-1.816.674L11.66,5.495l1.356-1.939,1.134-1.609V1.939h0L15.507,0l.705,1.939.59,1.617.705,1.939Z" transform="translate(-1.65)" fill="#ff7157"/><path d="M25.354,32.175l-1.525.552L14.135,6.088,13.43,4.149,14.564,2.54l.59,1.609.7,1.939Z" transform="translate(-2.063 -0.593)" fill="#fff"/><g transform="translate(26.081)"><path d="M47.735,5.495,37.8,32.808l-1.824-.674-1.517-.552-1.824-.659L41.888,5.495l.7-1.939.59-1.617L43.888,0l1.356,1.939,1.127,1.617h.008Z" transform="translate(-32.63)" fill="#ff7157"/><path d="M46.927,4.147h0l-.7,1.939-9.7,26.638-1.517-.552,9.5-26.087.705-1.939L45.8,2.53Z" transform="translate(-33.186 -0.591)" fill="#fff"/></g><path d="M51.167,5.495,49.811,3.556H49.8L48.676,1.939,47.32,0" transform="translate(-9.982)" fill="none"/><path d="M15.507,0,14.151,1.939h0v.008L13.016,3.556,11.66,5.495" transform="translate(-1.65)" fill="none"/><g transform="translate(4.599 12.019)"><ellipse cx="16.04" cy="16.032" rx="16.04" ry="16.032" transform="translate(0 12.434) rotate(-22.806)" fill="#fccf5b"/><circle cx="12.921" cy="12.921" r="12.921" transform="translate(8.078 8.075)" fill="#f8b74b"/><path d="M35.437,42.8a4.332,4.332,0,0,1-.345,1.763,3.922,3.922,0,0,1-.989,1.356,4.772,4.772,0,0,1-1.54.912,7.02,7.02,0,0,1-1.993.429L30.333,49.7a.364.364,0,0,1-.054.161.288.288,0,0,1-.146.115,1.378,1.378,0,0,1-.3.077,3.79,3.79,0,0,1-.475.031,4.146,4.146,0,0,1-.59-.031,1.093,1.093,0,0,1-.345-.1.328.328,0,0,1-.169-.169.457.457,0,0,1-.015-.23l.238-2.314a9.353,9.353,0,0,1-.92-.176,7.509,7.509,0,0,1-.789-.238,4.714,4.714,0,0,1-.613-.268,2.006,2.006,0,0,1-.391-.268.779.779,0,0,1-.192-.391,3.755,3.755,0,0,1-.054-.759c0-.261.008-.467.023-.636a1.4,1.4,0,0,1,.077-.391.387.387,0,0,1,.146-.192.4.4,0,0,1,.2-.054.91.91,0,0,1,.429.169,7.713,7.713,0,0,0,.728.376,6.9,6.9,0,0,0,1.073.376,5.713,5.713,0,0,0,1.487.169,3.276,3.276,0,0,0,1.985-.5,1.582,1.582,0,0,0,.651-1.318,1.391,1.391,0,0,0-.276-.9,2.507,2.507,0,0,0-.743-.621,6.661,6.661,0,0,0-1.05-.475c-.391-.138-.789-.291-1.2-.452a10.071,10.071,0,0,1-1.2-.559,4.439,4.439,0,0,1-1.05-.789,3.431,3.431,0,0,1-.743-1.134,4.205,4.205,0,0,1-.276-1.609,4.075,4.075,0,0,1,.284-1.556,3.593,3.593,0,0,1,.82-1.226,4.2,4.2,0,0,1,1.318-.851,6.657,6.657,0,0,1,1.77-.437l.23-2.291a.3.3,0,0,1,.054-.153.4.4,0,0,1,.146-.115,1.052,1.052,0,0,1,.291-.077,4,4,0,0,1,.475-.023,4.287,4.287,0,0,1,.59.031,1.139,1.139,0,0,1,.36.1.288.288,0,0,1,.161.169.726.726,0,0,1,.031.23l-.23,2.153c.215.031.437.069.674.123a5.128,5.128,0,0,1,.659.192,4.242,4.242,0,0,1,.559.23,1.226,1.226,0,0,1,.345.215.793.793,0,0,1,.146.192.865.865,0,0,1,.077.238,3.135,3.135,0,0,1,.038.345c.008.13.008.284.008.46,0,.238-.008.429-.015.582a1.115,1.115,0,0,1-.061.345.387.387,0,0,1-.1.161.265.265,0,0,1-.138.038,1,1,0,0,1-.429-.146c-.192-.1-.421-.207-.7-.322a8.209,8.209,0,0,0-.958-.322,4.465,4.465,0,0,0-1.188-.146,3.83,3.83,0,0,0-1.012.115,1.883,1.883,0,0,0-.682.322,1.264,1.264,0,0,0-.391.49,1.533,1.533,0,0,0-.123.628,1.38,1.38,0,0,0,.284.9,2.484,2.484,0,0,0,.759.628,6.638,6.638,0,0,0,1.073.475c.4.146.8.3,1.219.452a12.379,12.379,0,0,1,1.219.552,4.465,4.465,0,0,1,1.065.774,3.5,3.5,0,0,1,.751,1.119A4.34,4.34,0,0,1,35.437,42.8Z" transform="translate(-9.487 -18.998)" fill="#fccf5b"/></g></g></g></svg>