<svg xmlns="http://www.w3.org/2000/svg" width="21.423" height="14.461" viewBox="0 0 21.423 14.461"><path d="M.052,16.118V4.219q0-.021.062-.393l7,5.991L.135,16.531a1.751,1.751,0,0,1-.083-.413ZM.982,3a.89.89,0,0,1,.351-.062H20.194A1.17,1.17,0,0,1,20.566,3L13.542,9.012l-.93.744-1.839,1.508L8.935,9.755l-.93-.744ZM1,17.337l7.044-6.755,2.727,2.21,2.727-2.21,7.044,6.755a.992.992,0,0,1-.351.062H1.333A.936.936,0,0,1,1,17.337ZM14.43,9.817l6.983-5.991a1.233,1.233,0,0,1,.062.393v11.9a1.583,1.583,0,0,1-.062.413Z" transform="translate(-0.052 -2.938)" fill="#9ba5be"/></svg>