<svg xmlns="http://www.w3.org/2000/svg" xmlns:xlink="http://www.w3.org/1999/xlink" width="60" height="60" viewBox="0 0 60 60"><defs><linearGradient id="a" x1="0.5" x2="0.5" y2="1" gradientUnits="objectBoundingBox"><stop offset="0" stop-color="#e0d2f9"/><stop offset="1" stop-color="#dee0f4"/></linearGradient></defs><g transform="translate(-88 -610)"><path d="M30,60A30.008,30.008,0,0,1,18.323,2.358,30.008,30.008,0,0,1,41.677,57.642,29.813,29.813,0,0,1,30,60Zm0-49.091A19.091,19.091,0,1,0,49.091,30,19.113,19.113,0,0,0,30,10.909Z" transform="translate(88 610)" fill="url(#a)"/><g transform="translate(97.787 -399.833)"><g transform="translate(3.213 1018.362)"><path d="M1.717,14.59H24.889a1.713,1.713,0,0,0,1.717-1.717V1.716A1.713,1.713,0,0,0,24.889,0H1.717A1.713,1.713,0,0,0,0,1.716V12.873A1.713,1.713,0,0,0,1.717,14.59Z" transform="matrix(0.259, 0.966, -0.966, 0.259, 15.271, 1.99)" fill="#25b39e"/><path d="M-301.533,2314.536a2.575,2.575,0,0,0,1.821-3.154l5.8-1.555a2.574,2.574,0,0,0,3.153,1.821l4.665,17.408a2.574,2.574,0,0,0-1.821,3.153l-5.8,1.555a2.575,2.575,0,0,0-3.153-1.82Z" transform="translate(305.482 -2305.077)" fill="#f8b84e"/><path d="M-297.828,2313.3a1.045,1.045,0,0,1,.734-1.269,1.044,1.044,0,0,1,1.268.732,1.046,1.046,0,0,1-.732,1.27,1.048,1.048,0,0,1-1.271-.734Zm.828-.222a.192.192,0,0,0,.221.128.19.19,0,0,0,.125-.22.187.187,0,0,0-.218-.126.19.19,0,0,0-.128.219Zm3.615,16.806a1.046,1.046,0,0,1,.734-1.269,1.044,1.044,0,0,1,1.268.732,1.045,1.045,0,0,1-.732,1.27,1.047,1.047,0,0,1-1.271-.734Zm.829-.22a.19.19,0,0,0,.22.125.187.187,0,0,0,.126-.218.19.19,0,0,0-.219-.128A.192.192,0,0,0-292.557,2329.666Z" transform="translate(306.274 -2304.609)" fill="#25b39e"/><path d="M-298.36,2318.886l.829-.222.228.852a1.247,1.247,0,0,0,1.6,1.042,1.246,1.246,0,0,0,.867-1.7l-.228-.852.829-.222.228.852a2.178,2.178,0,0,1-1.474,2.755,2.179,2.179,0,0,1-2.656-1.648l-.228-.852Z" transform="translate(306.167 -2303.361)" fill="#25b39e" fill-rule="evenodd"/><path d="M-296.7,2318.46l.829-.222,1.1,4.119-.829.222-1.1-4.119Zm-1.658.438.829-.222,1.1,4.119-.829.222-1.1-4.119Zm3.457-.316.435-.741,3.478,2.041-.433.741-3.479-2.04Z" transform="translate(306.166 -2303.348)" fill="#25b39e" fill-rule="evenodd"/><path d="M1.717,0H24.889a1.713,1.713,0,0,1,1.717,1.716V12.873a1.713,1.713,0,0,1-1.717,1.716H1.717A1.713,1.713,0,0,1,0,12.873V1.716A1.713,1.713,0,0,1,1.717,0Z" transform="matrix(-0.259, 0.966, -0.966, -0.259, 33.56, 5.766)" fill="#25b39e"/><path d="M-276.713,2314.536a2.575,2.575,0,0,1-1.821-3.154l-5.8-1.555a2.574,2.574,0,0,1-3.153,1.821l-4.665,17.408a2.574,2.574,0,0,1,1.821,3.153l5.8,1.555a2.575,2.575,0,0,1,3.153-1.82Z" transform="translate(307.506 -2305.077)" fill="#f8b84e"/><path d="M-282,2313.3a1.047,1.047,0,0,0-.734-1.271,1.047,1.047,0,0,0-1.271.734,1.048,1.048,0,0,0,.734,1.271A1.048,1.048,0,0,0-282,2313.3Zm-.83-.223a.187.187,0,0,1-.218.126.187.187,0,0,1-.126-.218.187.187,0,0,1,.218-.126A.188.188,0,0,1-282.833,2313.079Zm-3.611,16.807a1.046,1.046,0,0,0-.734-1.269,1.046,1.046,0,0,0-1.27.731,1.047,1.047,0,0,0,.734,1.271,1.048,1.048,0,0,0,1.271-.733Zm-.83-.223a.19.19,0,0,1-.219.128.19.19,0,0,1-.125-.221.187.187,0,0,1,.218-.126A.188.188,0,0,1-287.274,2329.663Z" transform="translate(308.299 -2304.609)" fill="#25b39e"/><path d="M-281.837,2318.886l-.829-.222-.228.852a1.247,1.247,0,0,1-1.6,1.042,1.246,1.246,0,0,1-.867-1.7l.228-.852-.829-.222-.228.852a2.178,2.178,0,0,0,1.474,2.755,2.179,2.179,0,0,0,2.656-1.648l.228-.852Z" transform="translate(308.773 -2303.361)" fill="#25b39e" fill-rule="evenodd"/><path d="M-282.975,2318.46l-.829-.222-1.1,4.119.829.222Zm1.658.438-.829-.222-1.1,4.119.829.222,1.1-4.119Zm-3.457-.316-.435-.741-3.478,2.041.433.741,3.479-2.04Z" transform="translate(308.255 -2303.348)" fill="#25b39e" fill-rule="evenodd"/><path d="M1.717,0H24.889a1.713,1.713,0,0,1,1.717,1.716V12.873a1.713,1.713,0,0,1-1.717,1.716H1.717A1.713,1.713,0,0,1,0,12.873V1.716A1.713,1.713,0,0,1,1.717,0Z" transform="translate(24.667 1.213) rotate(90)" fill="#25b39e"/><path d="M-283.925,2310.907a2.575,2.575,0,0,1-2.575-2.575h-6.008a2.575,2.575,0,0,1-2.575,2.575v18.023a2.574,2.574,0,0,1,2.575,2.574h6.008a2.575,2.575,0,0,1,2.575-2.575Z" transform="translate(306.874 -2305.4)" fill="#f8b84e"/><path d="M-289.273,2310.984a1.046,1.046,0,0,0-1.038-1.035,1.043,1.043,0,0,0-1.035,1.035,1.046,1.046,0,0,0,1.035,1.038A1.048,1.048,0,0,0-289.273,2310.984Zm-.857,0a.192.192,0,0,1-.18.18.19.19,0,0,1-.178-.18.188.188,0,0,1,.178-.178A.19.19,0,0,1-290.13,2310.984Zm.857,17.167a1.048,1.048,0,0,0-1.038-1.038,1.046,1.046,0,0,0-1.035,1.038,1.043,1.043,0,0,0,1.035,1.035A1.045,1.045,0,0,0-289.273,2328.151Zm-.857,0a.19.19,0,0,1-.18.178.188.188,0,0,1-.178-.178.19.19,0,0,1,.178-.18A.192.192,0,0,1-290.13,2328.151Z" transform="translate(307.681 -2305.051)" fill="#25b39e"/><path d="M-286.917,2316.1h-.858v.882a1.247,1.247,0,0,1-1.281,1.422,1.246,1.246,0,0,1-1.279-1.422v-.882h-.858v.882a2.177,2.177,0,0,0,2.137,2.28,2.179,2.179,0,0,0,2.139-2.28Z" transform="translate(307.714 -2303.724)" fill="#25b39e" fill-rule="evenodd"/><path d="M-288.168,2316.124h-.858v4.265h.858Zm1.717,0h-.858v4.265h.858Zm-3.423.583-.612-.6-2.831,2.871.61.6,2.833-2.872Z" transform="translate(307.255 -2303.723)" fill="#25b39e" fill-rule="evenodd"/><path d="M-301.651,2320.82h28.31a2.1,2.1,0,0,1,2.129,2.081v16.563a2.1,2.1,0,0,1-2.129,2.08h-28.31a2.1,2.1,0,0,1-2.129-2.08V2322.9A2.1,2.1,0,0,1-301.651,2320.82Z" transform="translate(304.997 -2302.705)" fill="#f05542"/><path d="M-274.62,2326.82h-11.939l-1.435,1.407v4.478l1.435,1.407h11.939Z" transform="translate(308.404 -2301.41)" fill="#f17f53" fill-rule="evenodd"/><path d="M-283.733,2330.091a1.131,1.131,0,0,1-1.131,1.131,1.131,1.131,0,0,1-1.13-1.131,1.131,1.131,0,0,1,1.13-1.131,1.131,1.131,0,0,1,1.13,1.131Z" transform="translate(308.836 -2300.948)" fill="#f05542"/><path d="M13.005,3.059a2.953,2.953,0,0,0-2.933,2.933v-.5L3.735,7.19a2.957,2.957,0,0,0-2.073,3.593l2.5,9.33A3.258,3.258,0,0,0,1.213,23.25V39.813a3.341,3.341,0,0,0,3.346,3.3H32.867a3.341,3.341,0,0,0,3.346-3.3V23.25a3.306,3.306,0,0,0-3.184-3.232l2.477-9.235a2.957,2.957,0,0,0-2.073-3.593h0l-6.336-1.7v.5a2.953,2.953,0,0,0-2.933-2.933H13.005Zm0,1.216H24.162a1.713,1.713,0,0,1,1.717,1.717v.435l7.238,1.94a1.712,1.712,0,0,1,1.213,2.1l-2.869,10.7h1.406A2.1,2.1,0,0,1,35,23.25V39.813a2.1,2.1,0,0,1-2.13,2.08H4.559a2.1,2.1,0,0,1-2.13-2.08V23.25a2.1,2.1,0,0,1,2.13-2.083H5.706l-2.869-10.7a1.712,1.712,0,0,1,1.213-2.1l7.238-1.94V5.991a1.713,1.713,0,0,1,1.717-1.717Z" transform="translate(-1.213 -3.059)" fill="#e9eded"/></g></g></g></svg>