<svg xmlns="http://www.w3.org/2000/svg" xmlns:xlink="http://www.w3.org/1999/xlink" width="60" height="60" viewBox="0 0 60 60"><defs><linearGradient id="a" x1="0.5" x2="0.5" y2="1" gradientUnits="objectBoundingBox"><stop offset="0" stop-color="#e0d2f9"/><stop offset="1" stop-color="#dee0f4"/></linearGradient></defs><g transform="translate(-401 -503)"><path d="M30,60A30.008,30.008,0,0,1,18.323,2.358,30.008,30.008,0,0,1,41.677,57.642,29.813,29.813,0,0,1,30,60Zm0-49.091A19.091,19.091,0,1,0,49.091,30,19.113,19.113,0,0,0,30,10.909Z" transform="translate(401 503)" fill="url(#a)"/><g transform="translate(-2042.703 -1072.78)"><path d="M2462.549,1615.86h19.281m-25.46,2.554h6.623m17.412,0h8.885" transform="translate(1.912 7.642)" fill="none" stroke="#e6e6e6" stroke-linecap="round" stroke-linejoin="round" stroke-width="1"/><path d="M2461.264,1587.1a.391.391,0,0,0-.387.4c0,.273-.117.4-.387.4a.393.393,0,1,0,0,.787c.26,0,.387.072.387.379a.393.393,0,1,0,.787,0c0-.279.131-.379.389-.379a.393.393,0,1,0,0-.787c-.351,0-.389-.2-.389-.4A.4.4,0,0,0,2461.264,1587.1Zm-10.684,12.722a.537.537,0,0,0-.531.548c0,.375-.16.544-.531.544a.54.54,0,1,0,0,1.079c.357,0,.531.1.531.521a.54.54,0,1,0,1.079,0c0-.383.179-.521.533-.521a.54.54,0,1,0,0-1.079c-.481,0-.533-.275-.533-.544A.543.543,0,0,0,2450.581,1599.822Z" transform="translate(0 0.212)" fill="#fc0" fill-rule="evenodd"/><path d="M2451.182,1604.19a.3.3,0,0,0-.292.3c0,.205-.088.3-.291.3a.3.3,0,1,0,0,.593c.2,0,.291.054.291.286a.3.3,0,1,0,.593,0c0-.21.1-.286.293-.286a.3.3,0,1,0,0-.593c-.264,0-.293-.151-.293-.3A.3.3,0,0,0,2451.182,1604.19Z" transform="translate(0.343 4.627)" fill="#12141a" fill-rule="evenodd"/><path d="M2472.3,1586.28a.391.391,0,0,0-.387.4c0,.273-.117.4-.387.4a.393.393,0,1,0,0,.787c.26,0,.387.072.387.38a.393.393,0,1,0,.787,0c0-.279.131-.38.389-.38a.393.393,0,1,0,0-.787c-.351,0-.389-.2-.389-.4A.4.4,0,0,0,2472.3,1586.28Z" transform="translate(5.724)" fill="#ff8e00" fill-rule="evenodd"/><path d="M2482.981,1596.56a.3.3,0,0,0-.292.3c0,.205-.088.3-.291.3a.3.3,0,1,0,0,.593c.2,0,.291.054.291.286a.3.3,0,1,0,.593,0c0-.21.1-.286.293-.286a.3.3,0,1,0,0-.593c-.264,0-.293-.151-.293-.3A.3.3,0,0,0,2482.981,1596.56Z" transform="translate(8.559 2.656)" fill="#12141a" fill-rule="evenodd"/><path d="M2489.531,1604.35a.537.537,0,0,0-.531.548c0,.374-.16.544-.531.544a.54.54,0,1,0,0,1.08c.357,0,.531.1.531.521a.54.54,0,1,0,1.08,0c0-.383.179-.521.534-.521a.54.54,0,1,0,0-1.08c-.481,0-.534-.275-.534-.544A.543.543,0,0,0,2489.531,1604.35Z" transform="translate(10.063 4.669)" fill="#ff8e00" fill-rule="evenodd"/><path d="M2456.558,1601.657a7.464,7.464,0,1,1-3.235,3.5,7.491,7.491,0,0,1,3.235-3.5Z" transform="translate(0.956 3.738)" fill="#fc0"/><path d="M2462.008,1601.408a6.977,6.977,0,0,0-3.936,13.387c.128.038.257.062.385.09a6.966,6.966,0,0,1,3.922-13.347c-.123-.045-.244-.093-.371-.131Z" transform="translate(1.056 3.835)" fill="#fff"/><path d="M2461.1,1601.379a6.977,6.977,0,0,1-3.935,13.387c-.127-.038-.249-.087-.373-.131,3.581.841,6.552-1.979,7.451-5.037s-.063-7.077-3.525-8.31c.128.028.255.054.383.092Z" transform="translate(2.022 3.878)" fill="#ff8e00"/><path d="M2456.465,1603.19v.018h-.024v1.1h1.13a1.612,1.612,0,0,1,1.731,1.089h-2.837v1.1h2.837a1.612,1.612,0,0,1-1.731,1.091h-1.121v1.1h.292l3.389,3.312.769-.788-2.652-2.59a2.759,2.759,0,0,0,2.19-2.124h1.5v-1.1h-1.5a2.726,2.726,0,0,0-.528-1.1h2.03v-1.1h-5.466Z" transform="translate(1.93 4.369)" fill="#ff8e00" fill-rule="evenodd"/><path d="M2454.23,1603.644a7.488,7.488,0,0,1,13.336,3.668m0,1.847a7.436,7.436,0,0,1-.257,1.211,7.474,7.474,0,0,1-14.62-2.637m.356-1.838a7.3,7.3,0,0,1,.281-.73" transform="translate(0.956 3.739)" fill="none" stroke="#12141a" stroke-linecap="round" stroke-linejoin="round" stroke-miterlimit="10" stroke-width="1"/><path d="M2484.606,1601.833a7.487,7.487,0,1,1-5.425-.928,7.248,7.248,0,0,1,.772-.121,7.422,7.422,0,0,1,4.652,1.049Z" transform="translate(6.267 3.737)" fill="#fc0"/><path d="M2480.777,1601.16a6.977,6.977,0,0,0-.338,13.949c.133,0,.263-.012.4-.012a6.967,6.967,0,0,1,.334-13.908c-.131-.012-.26-.028-.392-.03Z" transform="translate(6.372 3.844)" fill="#fff"/><path d="M2479.51,1601.16a6.977,6.977,0,0,1-.337,13.949c-.133,0-.263-.02-.394-.03,3.676-.114,5.816-3.607,5.893-6.793s-1.893-6.819-5.555-7.114c.131,0,.26-.014.393-.012Z" transform="translate(7.702 3.844)" fill="#ff8e00"/><path d="M2481.724,1600.805a7.489,7.489,0,0,1,3.492,13.383m-1.6.92a7.476,7.476,0,0,1-6.2-13.6m1.77-.611a7.279,7.279,0,0,1,.772-.121" transform="translate(6.267 3.746)" fill="none" stroke="#12141a" stroke-linecap="round" stroke-linejoin="round" stroke-miterlimit="10" stroke-width="1"/><path d="M2471.038,1592.19a11.26,11.26,0,1,1-7.693,3.058,11.414,11.414,0,0,1,.9-.761,11.166,11.166,0,0,1,6.8-2.3Z" transform="translate(2.797 1.527)" fill="#fc0"/><path d="M2470.884,1592.79a10.495,10.495,0,0,0,0,20.989c.2,0,.4-.02.594-.031a10.48,10.48,0,0,1,0-20.927c-.2-.013-.391-.031-.591-.031Z" transform="translate(2.951 1.682)" fill="#fff"/><path d="M2477.015,1603.19v.018h-.023v1.1h1.129a1.613,1.613,0,0,1,1.731,1.089h-2.837v1.1h2.837a1.612,1.612,0,0,1-1.731,1.091H2477v1.1h.292l3.389,3.312.769-.788-2.652-2.59a2.759,2.759,0,0,0,2.19-2.124h1.5v-1.1h-1.5a2.723,2.723,0,0,0-.529-1.1h2.03v-1.1h-5.466Z" transform="translate(7.239 4.369)" fill="#ff8e00" fill-rule="evenodd"/><path d="M2468.932,1592.79a10.495,10.495,0,0,1,0,20.989c-.2,0-.4-.02-.594-.031,5.524-.3,8.616-5.636,8.616-10.43s-3.094-10.187-8.613-10.5c.2-.014.391-.03.591-.03Z" transform="translate(5.004 1.682)" fill="#ff8e00"/><path d="M2466.544,1593.134a11.266,11.266,0,0,1,14.968,14.452m-1.334,2.436a11.246,11.246,0,0,1-18.619-12.6m1.794-2.171a11.426,11.426,0,0,1,.9-.761" transform="translate(2.799 1.527)" fill="none" stroke="#12141a" stroke-linecap="round" stroke-linejoin="round" stroke-miterlimit="10" stroke-width="1"/><path d="M2465.657,1596.13v.015h-.034v1.572h1.615a2.305,2.305,0,0,1,2.475,1.557h-4.056v1.572h4.056a2.3,2.3,0,0,1-2.475,1.56h-1.6v1.573h.418l4.846,4.735,1.1-1.127-3.792-3.7a3.944,3.944,0,0,0,3.132-3.037h2.146v-1.572h-2.146a3.9,3.9,0,0,0-.755-1.572h2.9v-1.572h-7.815Z" transform="translate(4.302 2.545)" fill="#ff8e00" fill-rule="evenodd"/></g></g></svg>