<svg xmlns="http://www.w3.org/2000/svg" xmlns:xlink="http://www.w3.org/1999/xlink" width="60" height="60" viewBox="0 0 60 60"><defs><linearGradient id="a" x1="0.5" x2="0.5" y2="1" gradientUnits="objectBoundingBox"><stop offset="0" stop-color="#e0d2f9"/><stop offset="1" stop-color="#dee0f4"/></linearGradient></defs><g transform="translate(-798 -495)"><path d="M30,60A30.008,30.008,0,0,1,18.323,2.358,30.008,30.008,0,0,1,41.677,57.642,29.813,29.813,0,0,1,30,60Zm0-49.091A19.091,19.091,0,1,0,49.091,30,19.113,19.113,0,0,0,30,10.909Z" transform="translate(798 495)" fill="url(#a)"/><g transform="translate(806.361 504.288)"><rect width="5.954" height="19.526" transform="translate(35.065 17.626)" fill="#00acea"/><rect width="5.954" height="13.953" transform="translate(23.914 23.199)" fill="#00acea"/><rect width="5.954" height="19.526" transform="translate(12.763 17.626)" fill="#00acea"/><rect width="5.954" height="10.61" transform="translate(1.613 26.542)" fill="#00acea"/><path d="M226.467,131.468l-.015-.01-5.781-3.7-.032-.022.367-.493.293-.451,5.783,3.7Z" transform="translate(-202.982 -120.315)" fill="#fedb41"/><path d="M0,0,6.851.027l0,1.154L0,1.154Z" transform="translate(29.667 10.034) rotate(-39.959)" fill="#fedb41"/><path d="M0,0,7.965.032l0,1.155L0,1.155Z" transform="translate(5.669 13.546) rotate(-44.35)" fill="#fedb41"/><path d="M52.444,61.468A4.028,4.028,0,1,0,56.5,65.494,4.044,4.044,0,0,0,52.444,61.468Zm12.362,5.749a4.025,4.025,0,1,0,4.056,4.025A4.042,4.042,0,0,0,64.807,67.217ZM75.946,59.17A4.024,4.024,0,1,0,80,63.194,4.04,4.04,0,0,0,75.946,59.17ZM44.269,72.658a4.083,4.083,0,0,0-5.011.237,4,4,0,0,0-.949,4.887,4.062,4.062,0,0,0,7.664-1.845A3.988,3.988,0,0,0,44.269,72.658Z" transform="translate(-37.858 -59.17)" fill="#00efd1"/></g></g></svg>