<svg xmlns="http://www.w3.org/2000/svg" xmlns:xlink="http://www.w3.org/1999/xlink" width="60" height="60" viewBox="0 0 60 60"><defs><linearGradient id="a" x1="0.5" x2="0.5" y2="1" gradientUnits="objectBoundingBox"><stop offset="0" stop-color="#e0d2f9"/><stop offset="1" stop-color="#dee0f4"/></linearGradient></defs><g transform="translate(-1152 -226)"><path d="M30,60A30.008,30.008,0,0,1,18.323,2.358,30.008,30.008,0,0,1,41.677,57.642,29.813,29.813,0,0,1,30,60Zm0-49.091A19.091,19.091,0,1,0,49.091,30,19.113,19.113,0,0,0,30,10.909Z" transform="translate(1152 226)" fill="url(#a)"/><g transform="translate(1161.987 234.5)"><rect width="34.233" height="4.608" transform="translate(3.954 34.917)" fill="#e3fcfd"/><path d="M38.709,14.533H4.133L2,4H40.842Z" transform="translate(-0.679 -0.683)" fill="#e3fcfd"/><path d="M39.516,41.067H3.965A1.975,1.975,0,0,1,1.99,38.822L4.374,21.705A1.975,1.975,0,0,1,6.349,20h30.79a1.975,1.975,0,0,1,1.975,1.705L41.5,38.822a1.975,1.975,0,0,1-1.982,2.245Z" transform="translate(-0.669 -6.15)" fill="#42eaf5"/><path d="M42.138,32.534l-.915-7a1.327,1.327,0,0,0-2.633.329l.915,7a.658.658,0,0,1-.158.507.7.7,0,0,1-.5.23H3.329a.7.7,0,0,1-.527-.23.658.658,0,0,1-.165-.507l2.252-17.7H9.083v.658a1.317,1.317,0,0,0,2.633,0v-.658h18.71v.658a1.317,1.317,0,0,0,2.633,0v-.658h4.194l.691,5.438a1.327,1.327,0,0,0,2.633-.329l-.8-6.346,1.975-7.834A3.3,3.3,0,0,0,38.517,2H3.625A3.3,3.3,0,0,0,.4,6.095l1.975,7.834L.037,32.534A3.292,3.292,0,0,0,2.414,36.1v2.107A3.292,3.292,0,0,0,5.706,41.5H36.437a3.292,3.292,0,0,0,3.292-3.292V36.1A3.292,3.292,0,0,0,42.138,32.534ZM3.072,4.9a.658.658,0,0,1,.553-.263H38.517a.658.658,0,0,1,.553.263.619.619,0,0,1,.112.553l-1.791,7.084H33.059v-.658a1.317,1.317,0,1,0-2.633,0v.658H11.716v-.658a1.317,1.317,0,0,0-2.633,0v.658H4.751L2.96,5.45A.619.619,0,0,1,3.072,4.9ZM37.1,38.208a.658.658,0,0,1-.658.658H5.706a.658.658,0,0,1-.658-.658V36.233H37.1Z" transform="translate(0 0)" fill="#007da1"/><path d="M27.263,36.534a1.317,1.317,0,0,0,0,2.633H32.6a1.317,1.317,0,1,0,0-2.633H31.213V27.317a1.31,1.31,0,0,0-1.9-1.178l-2.673,1.317a1.317,1.317,0,1,0,1.165,2.357l.77-.375v7.1Z" transform="translate(-8.826 -8.201)" fill="#007da1"/><circle cx="1.317" cy="1.317" r="1.317" transform="translate(27.654 28.333)" fill="#e3fcfd"/></g></g></svg>