<svg xmlns="http://www.w3.org/2000/svg" width="123.333" height="123.333" viewBox="0 0 123.333 123.333"><g transform="translate(7.708 7.708)"><path d="M104.278,86.292,52.889,114.555,1.5,86.292V29.764L52.889,1.5l51.389,28.264Z" transform="translate(-1.5 -1.5)" fill="#fff"/><path d="M94,16.5,52.889,39.625,11.778,16.5,1.5,24.208,52.889,52.472l51.389-28.264Z" transform="translate(-1.5 60.583)" fill="#cce7ff"/><path d="M48.611,13.5,28.056,34.056,7.5,13.5" transform="translate(23.333 48.167)" fill="none" stroke="#1078ff" stroke-linecap="round" stroke-linejoin="round" stroke-miterlimit="10" stroke-width="1"/><path d="M11.5,58.889V7.5" transform="translate(39.889 23.333)" fill="none" stroke="#1078ff" stroke-linecap="round" stroke-linejoin="round" stroke-miterlimit="10" stroke-width="1"/><path d="M104.278,86.292,52.889,114.555,1.5,86.292V29.764L52.889,1.5l51.389,28.264Z" transform="translate(-1.5 -1.5)" fill="none" stroke="#1078ff" stroke-linecap="round" stroke-linejoin="round" stroke-miterlimit="10" stroke-width="1"/></g><path d="M0,0H123.333V123.333H0Z" fill="none"/></svg>