<svg xmlns="http://www.w3.org/2000/svg" xmlns:xlink="http://www.w3.org/1999/xlink" width="111" height="111" viewBox="0 0 111 111"><defs><linearGradient id="a" x1="0.5" x2="0.5" y2="1" gradientUnits="objectBoundingBox"><stop offset="0" stop-color="#e0d2f9"/><stop offset="1" stop-color="#dee0f4"/></linearGradient></defs><g transform="translate(-68 -232)"><path d="M55.5,111A55.515,55.515,0,0,1,33.9,4.362,55.514,55.514,0,0,1,77.1,106.639,55.153,55.153,0,0,1,55.5,111Zm0-90.818A35.318,35.318,0,1,0,90.818,55.5,35.358,35.358,0,0,0,55.5,20.182Z" transform="translate(68 232)" fill="url(#a)"/><g transform="translate(397.396 -842.856)"><path d="M-306,1150.073c0-10.16,3.586-23.706,21.3-38.38h20.8c17.717,14.675,21.677,28.221,21.677,38.38v1.129c0,9.38-13.17,16.932-29.528,16.932h-4.724c-16.359,0-29.528-7.552-29.528-16.932v-1.129Zm21.665-42.957a13.971,13.971,0,0,1-4.65-10.289l0,.119a4.192,4.192,0,0,1,1.841-3.542,3.366,3.366,0,0,1,3.682,0,4.192,4.192,0,0,1,1.841,3.542h-.005a4.192,4.192,0,0,1,1.841-3.542,3.366,3.366,0,0,1,3.682,0,4.192,4.192,0,0,1,1.841,3.542h0a4.192,4.192,0,0,1,1.841-3.542,3.366,3.366,0,0,1,3.682,0,4.192,4.192,0,0,1,1.841,3.542h-.005a4.192,4.192,0,0,1,1.841-3.542,3.366,3.366,0,0,1,3.682,0,4.192,4.192,0,0,1,1.841,3.542l0-.119a13.971,13.971,0,0,1-4.65,10.289" transform="translate(0 0)" fill="#f05542"/><path d="M-268.282,1121.432a15.607,15.607,0,0,1-15.617,15.574,15.527,15.527,0,0,1-15.526-15.574,15.527,15.527,0,0,1,15.526-15.571,15.606,15.606,0,0,1,15.617,15.571h0Z" transform="translate(10.49 20.75)" fill="#f8b84e"/><path d="M-295.908,1108.4v2.6h2.667c3.134,0,4.3,1.915,4.3,3.873s-1.165,3.868-4.3,3.868h-2.667v2.6h2.667a6.585,6.585,0,0,0,6.895-6.464,6.589,6.589,0,0,0-6.895-6.469Z" transform="translate(16.103 24.802)" fill="#2b4255" fill-rule="evenodd"/><path d="M-295.8,1113.581v2.6h12.9v-2.6Zm0-5.191v2.6h12.9v-2.6Zm1.679,10.356-1.815,1.861,8.765,8.562,1.815-1.855Z" transform="translate(16.056 24.786)" fill="#2b4255" fill-rule="evenodd"/><path d="M-297.939,1098.08v5.638h21.6v-5.638" transform="translate(12.862 8.335)" fill="#2b4255" fill-rule="evenodd"/></g></g></svg>