<svg xmlns="http://www.w3.org/2000/svg" width="54" height="51.486" viewBox="0 0 54 51.486"><g transform="translate(0 -1.49)"><path d="M53.882,13.944a.031.031,0,0,0-.008-.025L48.043,2.157a1.211,1.211,0,0,0-1.088-.667H7.417a1.213,1.213,0,0,0-1.072.641L.143,13.893c-.008.008-.008.025-.017.034a1.69,1.69,0,0,0-.084.219c0,.017-.008.034-.008.051A.834.834,0,0,0,0,14.45v5a7.577,7.577,0,0,0,3.383,6.311v26A1.206,1.206,0,0,0,4.59,52.976H49.41a1.206,1.206,0,0,0,1.207-1.207V25.8A7.547,7.547,0,0,0,54,19.5V14.458A1.181,1.181,0,0,0,53.882,13.944ZM46.2,3.895l4.641,9.349h-9.88L38.677,3.895Zm-17.947,0h7.931l2.287,9.349H28.257Zm0,11.762H38.9v3.721a5.261,5.261,0,0,1-5.248,5.257h-.143a5.261,5.261,0,0,1-5.248-5.257V15.657ZM17.55,3.895h8.286v9.349H15.491ZM15.2,15.657h10.64v3.721a5.261,5.261,0,0,1-5.248,5.257h-.143A5.261,5.261,0,0,1,15.2,19.378ZM8.142,3.895h6.936l-2.059,9.349h-9.8ZM2.422,19.453v-3.8H12.783v3.8a5.181,5.181,0,1,1-10.361,0Zm17,31.109h-8.1V37.771h8.1Zm1.671-15.2H9.653v-1.5H21.094Zm27.11,15.2H21.836V37.771H22.3a1.206,1.206,0,0,0,1.207-1.207V32.65A1.206,1.206,0,0,0,22.3,31.443H8.446A1.206,1.206,0,0,0,7.239,32.65v3.915a1.206,1.206,0,0,0,1.207,1.207H8.91v12.8H5.8V26.828a7.822,7.822,0,0,0,1.8.219,7.588,7.588,0,0,0,6.4-3.527,7.658,7.658,0,0,0,6.438,3.527h.143a7.637,7.637,0,0,0,6.455-3.552,7.663,7.663,0,0,0,6.463,3.552h.143a7.659,7.659,0,0,0,6.429-3.51,7.513,7.513,0,0,0,8.125,3.3ZM51.578,19.5a5.134,5.134,0,1,1-10.268,0V15.657H51.578V19.5Z" transform="translate(0 0)" fill="#2a2f63"/><rect width="11.441" height="1.502" transform="translate(9.652 33.856)" fill="#ffdb7c"/><rect width="8.1" height="12.8" transform="translate(11.323 37.771)" fill="#ffdb7c"/><path d="M47.523,31.122a7.545,7.545,0,0,1-6.37-3.51,7.659,7.659,0,0,1-6.429,3.51H34.58a7.663,7.663,0,0,1-6.463-3.552,7.637,7.637,0,0,1-6.455,3.552h-.143A7.658,7.658,0,0,1,15.081,27.6a7.588,7.588,0,0,1-6.4,3.527,7.822,7.822,0,0,1-1.8-.219V54.638h3.1V41.846H9.521A1.206,1.206,0,0,1,8.314,40.64V36.725a1.206,1.206,0,0,1,1.207-1.207H23.375a1.206,1.206,0,0,1,1.207,1.207V40.64a1.206,1.206,0,0,1-1.207,1.207h-.464v12.8H49.278V30.911A7.514,7.514,0,0,1,47.523,31.122Zm.1,9.61a1.206,1.206,0,0,1-1.207,1.207h-.135V52.6A1.206,1.206,0,0,1,45.077,53.8H30.539A1.208,1.208,0,0,1,29.324,52.6V41.939H29.2a1.206,1.206,0,0,1-1.207-1.207V36.877A1.206,1.206,0,0,1,29.2,35.67H46.418a1.206,1.206,0,0,1,1.207,1.207Z" transform="translate(-1.075 -4.075)" fill="#f16e61"/><path d="M13.231,18.28v3.8a5.181,5.181,0,0,1-10.361,0v-3.8Z" transform="translate(-0.448 -2.623)" fill="#edeced"/><path d="M15.673,4.34,13.614,13.7H3.81L8.737,4.34Z" transform="translate(-0.595 -0.445)" fill="#edeced"/><path d="M28.7,4.34V13.7H18.36L20.419,4.34Z" transform="translate(-2.869 -0.445)" fill="#edeced"/><path d="M28.65,18.28V22A5.261,5.261,0,0,1,23.4,27.257h-.143A5.261,5.261,0,0,1,18.01,22V18.28Zm13.061,0V22a5.261,5.261,0,0,1-5.248,5.257h-.143A5.261,5.261,0,0,1,31.071,22V18.28Z" transform="translate(-2.814 -2.623)" fill="#edeced"/><path d="M43.708,13.7H33.49V4.34h7.931Z" transform="translate(-5.233 -0.445)" fill="#edeced"/><path d="M58.007,13.7h-9.88L45.84,4.34h7.526Z" transform="translate(-7.163 -0.445)" fill="#edeced"/><path d="M59.228,18.28v3.839a5.134,5.134,0,1,1-10.268,0V18.28Z" transform="translate(-7.65 -2.623)" fill="#edeced"/><path d="M50.327,37.17H33.107A1.206,1.206,0,0,0,31.9,38.377v3.856a1.206,1.206,0,0,0,1.207,1.207h.127V54.1A1.208,1.208,0,0,0,34.448,55.3H48.986A1.206,1.206,0,0,0,50.193,54.1V43.439h.135a1.206,1.206,0,0,0,1.207-1.207V38.377A1.206,1.206,0,0,0,50.327,37.17Zm-2.548,15.7H35.655V43.439H47.779Zm1.333-11.863h-14.8V39.575h14.8Z" transform="translate(-4.984 -5.575)" fill="#2a2f63"/><rect width="14.799" height="1.434" transform="translate(29.329 34.008)" fill="#ffdb7c"/><rect width="12.125" height="9.442" transform="translate(30.67 37.864)" fill="#ffdb7c"/></g></svg>